<?xml version="1.0" standalone="no"?><svg xmlns="http://www.w3.org/2000/svg" viewBox="0 0 1440 320"><path fill="#ff5500" fill-opacity="0.8" d="M0,256L8.6,218.7C17.1,181,34,107,51,64C68.6,21,86,11,103,21.3C120,32,137,64,154,96C171.4,128,189,160,206,170.7C222.9,181,240,171,257,170.7C274.3,171,291,181,309,165.3C325.7,149,343,107,360,80C377.1,53,394,43,411,64C428.6,85,446,139,463,160C480,181,497,171,514,165.3C531.4,160,549,160,566,176C582.9,192,600,224,617,208C634.3,192,651,128,669,101.3C685.7,75,703,85,720,117.3C737.1,149,754,203,771,208C788.6,213,806,171,823,176C840,181,857,235,874,224C891.4,213,909,139,926,112C942.9,85,960,107,977,112C994.3,117,1011,107,1029,90.7C1045.7,75,1063,53,1080,37.3C1097.1,21,1114,11,1131,5.3C1148.6,0,1166,0,1183,32C1200,64,1217,128,1234,133.3C1251.4,139,1269,85,1286,69.3C1302.9,53,1320,75,1337,117.3C1354.3,160,1371,224,1389,213.3C1405.7,203,1423,117,1431,74.7L1440,32L1440,0L1431.4,0C1422.9,0,1406,0,1389,0C1371.4,0,1354,0,1337,0C1320,0,1303,0,1286,0C1268.6,0,1251,0,1234,0C1217.1,0,1200,0,1183,0C1165.7,0,1149,0,1131,0C1114.3,0,1097,0,1080,0C1062.9,0,1046,0,1029,0C1011.4,0,994,0,977,0C960,0,943,0,926,0C908.6,0,891,0,874,0C857.1,0,840,0,823,0C805.7,0,789,0,771,0C754.3,0,737,0,720,0C702.9,0,686,0,669,0C651.4,0,634,0,617,0C600,0,583,0,566,0C548.6,0,531,0,514,0C497.1,0,480,0,463,0C445.7,0,429,0,411,0C394.3,0,377,0,360,0C342.9,0,326,0,309,0C291.4,0,274,0,257,0C240,0,223,0,206,0C188.6,0,171,0,154,0C137.1,0,120,0,103,0C85.7,0,69,0,51,0C34.3,0,17,0,9,0L0,0Z"></path></svg>