<?xml version="1.0" standalone="no"?><svg xmlns="http://www.w3.org/2000/svg" viewBox="0 0 1440 320"><path fill="#a2d9ff" fill-opacity="1" d="M0,0L20,26.7C40,53,80,107,120,144C160,181,200,203,240,213.3C280,224,320,224,360,229.3C400,235,440,245,480,218.7C520,192,560,128,600,90.7C640,53,680,43,720,64C760,85,800,139,840,149.3C880,160,920,128,960,117.3C1000,107,1040,117,1080,149.3C1120,181,1160,235,1200,266.7C1240,299,1280,309,1320,314.7C1360,320,1400,320,1420,320L1440,320L1440,320L1420,320C1400,320,1360,320,1320,320C1280,320,1240,320,1200,320C1160,320,1120,320,1080,320C1040,320,1000,320,960,320C920,320,880,320,840,320C800,320,760,320,720,320C680,320,640,320,600,320C560,320,520,320,480,320C440,320,400,320,360,320C320,320,280,320,240,320C200,320,160,320,120,320C80,320,40,320,20,320L0,320Z"></path></svg>