<?xml version="1.0" standalone="no"?><svg xmlns="http://www.w3.org/2000/svg" viewBox="0 0 1440 320"><path fill="wheat" fill-opacity="1" d="M0,96L24,101.3C48,107,96,117,144,138.7C192,160,240,192,288,202.7C336,213,384,203,432,165.3C480,128,528,64,576,58.7C624,53,672,107,720,144C768,181,816,203,864,192C912,181,960,139,1008,154.7C1056,171,1104,245,1152,272C1200,299,1248,277,1296,240C1344,203,1392,149,1416,122.7L1440,96L1440,320L1416,320C1392,320,1344,320,1296,320C1248,320,1200,320,1152,320C1104,320,1056,320,1008,320C960,320,912,320,864,320C816,320,768,320,720,320C672,320,624,320,576,320C528,320,480,320,432,320C384,320,336,320,288,320C240,320,192,320,144,320C96,320,48,320,24,320L0,320Z"></path></svg>