<?xml version="1.0" standalone="no"?><svg xmlns="http://www.w3.org/2000/svg" viewBox="0 0 1440 320"><path fill="wheat" fill-opacity="0.5" d="M0,32L24,32C48,32,96,32,144,58.7C192,85,240,139,288,154.7C336,171,384,149,432,133.3C480,117,528,107,576,101.3C624,96,672,96,720,96C768,96,816,96,864,133.3C912,171,960,245,1008,245.3C1056,245,1104,171,1152,170.7C1200,171,1248,245,1296,240C1344,235,1392,149,1416,106.7L1440,64L1440,0L1416,0C1392,0,1344,0,1296,0C1248,0,1200,0,1152,0C1104,0,1056,0,1008,0C960,0,912,0,864,0C816,0,768,0,720,0C672,0,624,0,576,0C528,0,480,0,432,0C384,0,336,0,288,0C240,0,192,0,144,0C96,0,48,0,24,0L0,0Z"></path></svg>