<?xml version="1.0" standalone="no"?><svg xmlns="http://www.w3.org/2000/svg" viewBox="0 0 1440 320"><path fill="wheat" fill-opacity="1" d="M0,96L26.7,106.7C53.3,117,107,139,160,154.7C213.3,171,267,181,320,186.7C373.3,192,427,192,480,176C533.3,160,587,128,640,138.7C693.3,149,747,203,800,208C853.3,213,907,171,960,176C1013.3,181,1067,235,1120,245.3C1173.3,256,1227,224,1280,197.3C1333.3,171,1387,149,1413,138.7L1440,128L1440,0L1413.3,0C1386.7,0,1333,0,1280,0C1226.7,0,1173,0,1120,0C1066.7,0,1013,0,960,0C906.7,0,853,0,800,0C746.7,0,693,0,640,0C586.7,0,533,0,480,0C426.7,0,373,0,320,0C266.7,0,213,0,160,0C106.7,0,53,0,27,0L0,0Z"></path></svg>